<?xml version="1.0" encoding="utf-8"?>
<!-- Generator: Adobe Illustrator 18.1.0, SVG Export Plug-In . SVG Version: 6.00 Build 0)  -->
<svg version="1.1" id="Layer_1" xmlns="http://www.w3.org/2000/svg" xmlns:xlink="http://www.w3.org/1999/xlink" x="0px" y="0px"
	 viewBox="0 0 150 150" enable-background="new 0 0 150 150" xml:space="preserve">
<g>
	<path fill="#004F87" d="M73.1,118.9l-3.9,4.7c3.4,0.8,6.9,1.3,10.5,1.3c26,0,47-21.1,47-47c0-1.3-0.3-2.6-0.4-3.9
		C105.5,86.1,87.3,101.3,73.1,118.9z"/>
	<path fill="#FCD228" d="M121.5,56.8c-7.8-15.3-23.5-26-41.8-26c-25,0-45.2,19.5-46.7,44.1c9.4-3.1,18.7-5.9,24.5-7.5
		C73.9,63.2,100.4,58.9,121.5,56.8z"/>
	<path fill="#0094D9" d="M64.2,97.9C61.9,94,56.3,89,48.6,86.6c-1.4-0.5-3.4-0.7-5.9-0.7c-2.8,0-5.9,0.3-9.2,0.8
		c3.2,17,15.6,30.5,31.8,35.8l0.9-6.5C67,109.4,66.1,101.3,64.2,97.9z"/>
	<path fill="#FFFFFF" d="M70.6,116.4c0.9-6.9,0.1-16-2.5-20.5c-2.6-4.6-8.9-10.3-17.7-13.1c-11.2-3.6-38.5,4.8-46.1,6.2
		c6.4-2.5,40.8-14.2,54.7-17.8c16.2-4.2,43.8-8.9,66.1-10.8c6.2-0.6,12.3-0.9,18.6-0.7c0.4,0.1,1.1,0.4,1.5,0.5
		C116.5,73.1,90.4,92.1,70.6,116.4z"/>
	<path fill="#004F87" d="M125.1,60.4c-22.3,2-49.9,6.7-66.1,10.8C45.1,74.9,10.7,86.6,4.4,89.1c7.6-1.4,34.9-9.8,46.1-6.2
		c8.7,2.8,15,8.5,17.7,13.1c2.6,4.5,3.4,13.6,2.5,20.5c19.8-24.4,45.9-43.4,74.5-56.2c-0.4-0.1-1.1-0.4-1.5-0.5
		C137.5,59.5,131.3,59.8,125.1,60.4z"/>
</g>
</svg>
